<?xml version="1.0" encoding="UTF-8" standalone="no"?>
<!-- Created with Inkscape (http://www.inkscape.org/) -->

<svg
   width="64"
   height="64"
   id="svg2869"
   version="1.1"
   viewBox="0 0 64 64"
   xmlns="http://www.w3.org/2000/svg"
   xmlns:svg="http://www.w3.org/2000/svg"
   xmlns:rdf="http://www.w3.org/1999/02/22-rdf-syntax-ns#"
   xmlns:cc="http://creativecommons.org/ns#"
   xmlns:dc="http://purl.org/dc/elements/1.1/">
  <defs
     id="defs2871">
    <linearGradient
       id="linearGradient5">
      <stop
         style="stop-color:#ef2929;stop-opacity:1;"
         offset="0"
         id="stop19" />
      <stop
         style="stop-color:#ef2929;stop-opacity:0;"
         offset="1"
         id="stop20" />
    </linearGradient>
    <linearGradient
       id="swatch18">
      <stop
         style="stop-color:#ef2929;stop-opacity:1;"
         offset="0"
         id="stop18" />
    </linearGradient>
    <linearGradient
       id="swatch15">
      <stop
         style="stop-color:#3d0000;stop-opacity:1;"
         offset="0"
         id="stop15" />
    </linearGradient>
    <linearGradient
       id="linearGradient5-1">
      <stop
         style="stop-color:#ef2929;stop-opacity:1;"
         offset="0"
         id="stop5" />
      <stop
         style="stop-color:#ef2929;stop-opacity:0;"
         offset="1"
         id="stop6" />
    </linearGradient>
    <linearGradient
       id="linearGradient3836-9">
      <stop
         style="stop-color:#a40000;stop-opacity:1"
         offset="0"
         id="stop3838-8" />
      <stop
         style="stop-color:#ef2929;stop-opacity:1"
         offset="1"
         id="stop3840-1" />
    </linearGradient>
  </defs>
  <metadata
     id="metadata2874">
    <rdf:RDF>
      <cc:Work
         rdf:about="">
        <dc:format>image/svg+xml</dc:format>
        <dc:type
           rdf:resource="http://purl.org/dc/dcmitype/StillImage" />
        <dc:creator>
          <cc:Agent>
            <dc:title>[maxwxyz]</dc:title>
          </cc:Agent>
        </dc:creator>
        <dc:relation>https://www.freecad.org/wiki/index.php?title=Artwork</dc:relation>
        <dc:publisher>
          <cc:Agent>
            <dc:title>FreeCAD</dc:title>
          </cc:Agent>
        </dc:publisher>
        <dc:identifier>FreeCAD/src/</dc:identifier>
        <dc:rights>
          <cc:Agent>
            <dc:title>FreeCAD LGPL2+</dc:title>
          </cc:Agent>
        </dc:rights>
        <dc:date>2024</dc:date>
      </cc:Work>
    </rdf:RDF>
  </metadata>
  <g
     id="layer3"
     style="display:inline">
    <rect
       style="fill:none;stroke:#0b1d23;stroke-width:2;stroke-linecap:round;stroke-linejoin:round;stroke-miterlimit:4;stroke-dasharray:none;stroke-opacity:1"
       id="rect224"
       width="15.680449"
       height="31.176634"
       x="11.984815"
       y="27.626112"
       ry="0" />
    <rect
       style="fill:none;stroke:#0b1d23;stroke-width:2;stroke-linecap:round;stroke-linejoin:round;stroke-miterlimit:4;stroke-dasharray:none;stroke-opacity:1"
       id="rect225"
       width="15.680449"
       height="31.176634"
       x="27.665264"
       y="27.626112" />
    <rect
       style="fill:none;stroke:#0b1d23;stroke-width:2;stroke-linecap:round;stroke-linejoin:round;stroke-miterlimit:4;stroke-dasharray:none;stroke-opacity:1"
       id="rect226"
       width="15.680449"
       height="31.176634"
       x="43.345718"
       y="27.626112" />
    <rect
       style="fill:none;stroke:#0b1d23;stroke-width:2;stroke-linecap:round;stroke-linejoin:round;stroke-miterlimit:4;stroke-dasharray:none;stroke-opacity:1"
       id="rect227"
       width="47.041351"
       height="10.39221"
       x="12.072416"
       y="27.465946" />
    <rect
       style="fill:none;stroke:#0b1d23;stroke-width:2;stroke-linecap:round;stroke-linejoin:round;stroke-miterlimit:4;stroke-dasharray:none;stroke-opacity:1"
       id="rect228"
       width="47.041351"
       height="10.39221"
       x="11.984815"
       y="48.410534"
       ry="0" />
    <rect
       style="fill:none;stroke:#ffffff;stroke-width:0.5;stroke-linecap:round;stroke-linejoin:round;stroke-miterlimit:4;stroke-dasharray:none;stroke-opacity:1"
       id="rect3851"
       width="15.680449"
       height="31.176634"
       x="11.984815"
       y="27.626112"
       ry="0" />
    <rect
       style="fill:none;stroke:#ffffff;stroke-width:0.5;stroke-linecap:round;stroke-linejoin:round;stroke-miterlimit:4;stroke-dasharray:none;stroke-opacity:1"
       id="rect3853"
       width="15.680449"
       height="31.176634"
       x="27.665264"
       y="27.626112" />
    <rect
       style="fill:none;stroke:#ffffff;stroke-width:0.5;stroke-linecap:round;stroke-linejoin:round;stroke-miterlimit:4;stroke-dasharray:none;stroke-opacity:1"
       id="rect3855"
       width="15.680449"
       height="31.176634"
       x="43.345718"
       y="27.626112" />
    <rect
       style="fill:none;stroke:#ffffff;stroke-width:0.5;stroke-linecap:round;stroke-linejoin:round;stroke-miterlimit:4;stroke-dasharray:none;stroke-opacity:1"
       id="rect3861"
       width="47.041351"
       height="10.39221"
       x="12.072416"
       y="27.465946" />
    <rect
       style="fill:none;stroke:#ffffff;stroke-width:0.5;stroke-linecap:round;stroke-linejoin:round;stroke-miterlimit:4;stroke-dasharray:none;stroke-opacity:1"
       id="rect3863"
       width="47.041351"
       height="10.39221"
       x="11.984815"
       y="48.410534"
       ry="0" />
    <path
       id="path231"
       style="fill:none;fill-rule:evenodd;stroke:#220c0c;stroke-width:6;stroke-linecap:round;stroke-linejoin:round;stroke-miterlimit:4;stroke-dasharray:none;stroke-opacity:1"
       d="m 11.892078,58.79775 46.770161,0.200412 0.331915,-31.437835 M 27.680868,27.843493 33.37594,37.997649 46.154897,48.33265 58.625779,58.30596 43.248006,50.255138 28.033659,41.538243 12.460405,37.930846 m 0.100797,10.387967 h 14.91807 l 15.85477,5.13717 15.241338,5.016987 -7.570398,-10.205444 -7.650064,-10.33668 0.151191,-10.087353" />
    <path
       style="fill:none;fill-rule:evenodd;stroke:#0c1522;stroke-width:6;stroke-linecap:round;stroke-linejoin:round;stroke-miterlimit:4;stroke-dasharray:none;stroke-opacity:1"
       d="m 43.639287,59 c 0,-0.133608 0.151206,-5.411099 0.151206,-5.544705 0,-0.133606 1.360763,-2.404931 1.360763,-2.404931 l 2.671142,-1.736897 3.62872,-0.868451 7.322903,-0.03448"
       id="path228" />
    <path
       style="fill:none;fill-rule:evenodd;stroke:#0c1522;stroke-width:6;stroke-linecap:round;stroke-linejoin:round;stroke-miterlimit:4;stroke-dasharray:none;stroke-opacity:1"
       d="m 27.665265,58.475442 c 0,-0.133607 -1e-6,-9.962757 -1e-6,-10.096365 0,-0.133606 0.217199,-6.840834 0.217199,-6.840834 l 5.090288,-3.807808 10.583766,0.06681 15.334971,0.04725"
       id="path229" />
    <path
       style="fill:none;fill-rule:evenodd;stroke:#0c1522;stroke-width:6;stroke-linecap:round;stroke-linejoin:round;stroke-miterlimit:4;stroke-dasharray:none;stroke-opacity:1"
       d="m 11.923618,58.817219 c 0,-0.133608 0.172086,-10.435208 0.172086,-10.568815 0,-0.133608 0.07992,-10.206956 0.07992,-10.206956 L 27.672027,27.620414 43.672677,27.356553 59,27.450123"
       id="path230" />
    <ellipse
       style="fill:#729fcf;fill-opacity:1;stroke:#0c1522;stroke-width:6;stroke-linecap:round;stroke-linejoin:round;stroke-miterlimit:4;stroke-dasharray:none;stroke-opacity:1"
       id="ellipse230"
       ry="0.83139926"
       rx="1.1039189"
       cy="58.166759"
       cx="57.670101" />
    <path
       id="path4147-2"
       style="fill:none;fill-rule:evenodd;stroke:#ef2929;stroke-width:2;stroke-linecap:round;stroke-linejoin:round;stroke-miterlimit:4;stroke-dasharray:none;stroke-opacity:1"
       d="m 11.984814,58.798147 46.677425,0.200015 0.331915,-31.437835 M 27.680868,27.843493 33.37594,37.997649 46.154897,48.33265 58.625779,58.30596 43.248006,50.255138 28.033659,41.538243 12.460405,37.930846 m 0.100797,10.387967 h 14.91807 l 15.85477,5.13717 15.241338,5.016987 -7.570398,-10.205444 -7.650064,-10.33668 0.151191,-10.087353" />
    <path
       style="fill:none;fill-rule:evenodd;stroke:#729fcf;stroke-width:2;stroke-linecap:round;stroke-linejoin:round;stroke-miterlimit:4;stroke-dasharray:none;stroke-opacity:1"
       d="m 43.639287,59 c 0,-0.133608 0.151206,-5.411099 0.151206,-5.544705 0,-0.133606 1.360763,-2.404931 1.360763,-2.404931 l 2.671142,-1.736897 3.62872,-0.868451 7.422348,-0.08637"
       id="path4151-2" />
    <path
       style="fill:none;fill-rule:evenodd;stroke:#729fcf;stroke-width:2;stroke-linecap:round;stroke-linejoin:round;stroke-miterlimit:4;stroke-dasharray:none;stroke-opacity:1"
       d="m 27.665265,58.865339 -1e-6,-10.486262 c 0,-0.133606 0.217199,-6.840834 0.217199,-6.840834 l 5.090288,-3.807808 10.583766,0.06681 15.334971,0.04725"
       id="path4151" />
    <path
       style="fill:none;fill-rule:evenodd;stroke:#729fcf;stroke-width:2;stroke-linecap:round;stroke-linejoin:round;stroke-miterlimit:4;stroke-dasharray:none;stroke-opacity:1"
       d="m 11.923618,58.817219 c 0,-0.133608 0.172086,-10.435208 0.172086,-10.568815 0,-0.133608 0.07992,-10.206956 0.07992,-10.206956 l 15.496403,-10.421034 16.00065,-0.263861 15.477521,0.09449"
       id="path4151-5" />
    <ellipse
       style="fill:#729fcf;fill-opacity:1;stroke:#729fcf;stroke-width:2;stroke-linecap:round;stroke-linejoin:round;stroke-miterlimit:4;stroke-dasharray:none;stroke-opacity:1"
       id="path4198"
       cx="58.20092"
       cy="58.461128"
       rx="1.6347377"
       ry="1.125767" />
    <path
       style="font-size:24px;line-height:1.25;font-family:Evolventa;-inkscape-font-specification:'Evolventa, Normal';letter-spacing:0px;word-spacing:0px;display:inline;fill:#0b1e23;fill-opacity:1;stroke:#0b1e23;stroke-width:2;stroke-linecap:round;stroke-linejoin:round;stroke-dasharray:none;stroke-opacity:1"
       d="M 9.9394531,2.5 4.9492188,9.9140625 C 3.1591693,12.586531 2.5,14.146158 2.5,16.380859 c 0,4.639874 3.4850225,8.167969 8.119141,8.167969 1.163455,0 2.246928,-0.232408 3.21875,-0.652344 l -0.230469,0.339844 h 6.859375 l 2.482422,-3.675781 2.46875,3.675781 h 6.898437 l -2.21875,-3.240234 h 5.882813 v 3.240234 h 5.751953 v -3.240234 h 1.630859 V 15.388672 H 41.732422 V 2.5 H 36.578125 L 27.107422,16.626953 26.378906,15.5625 32.404297,7.1074219 H 25.439453 L 22.949219,10.681641 20.445312,7.1074219 H 13.693359 L 16.814453,2.5 Z m 3.6699219,4.7324219 1.623047,2.2910156 C 14.51132,9.0130707 13.694553,8.6374381 12.8125,8.4101562 Z m 22.371094,6.3417971 v 1.814453 h -1.205078 z m -17.75586,0.169922 1.28711,1.816406 -0.947266,1.392578 c 0.01666,-0.228882 0.03125,-0.458743 0.03125,-0.693359 0,-0.877371 -0.13153,-1.722166 -0.371094,-2.515625 z m -7.701171,0.02734 c 1.378908,0 2.296874,0.895364 2.296875,2.583985 0,1.677163 -0.917655,2.583984 -2.22461,2.583984 -1.2781694,0 -2.3203124,-1.017606 -2.3203124,-2.607422 0,-1.522522 1.0783951,-2.560547 2.2480474,-2.560547 z"
       id="text3025"
       aria-label="6x4" />
    <path
       style="font-size:24px;line-height:1.25;font-family:Evolventa;-inkscape-font-specification:'Evolventa, Normal';letter-spacing:0px;word-spacing:0px;display:inline;fill:#ffffff;stroke:#ffffff;stroke-linecap:round;stroke-linejoin:miter"
       d="M 11.004,4.5000001 6.612,11.028 C 4.908,13.572 4.5,14.604 4.5,16.38 c 0,3.528 2.616,6.168 6.12,6.168 3.456,0 5.976,-2.64 5.976,-6.288 0,-3.408 -2.496,-6.096 -5.664,-6.096 -0.744,0 -1.272,0.12 -2.064,0.504 L 13.044,4.5000001 Z M 10.524,11.772 c 2.544,0 4.296,1.872 4.296,4.584 0,2.664 -1.752,4.584 -4.224,4.584 -2.472,0 -4.32,-1.968 -4.32,-4.608 0,-2.592 1.848,-4.56 4.248,-4.56 z m 6.86402,10.464 h 2.016 l 3.552,-5.256 3.528,5.256 h 2.04 l -4.584,-6.696 4.584,-6.4319999 h -2.04 l -3.528,5.0639999 -3.552,-5.0639999 h -2.016 l 4.56,6.4319999 z m 20.591989,0 h 1.752 v -3.24 h 1.632 v -1.608 h -1.632 V 4.5000001 h -2.088 l -8.64,12.8879999 v 1.608 h 8.976 z m 0,-4.848 h -6.936 l 6.936,-10.4399999 z"
       id="text1"
       aria-label="6x4" />
  </g>
</svg>
