<?xml version="1.0" encoding="UTF-8" standalone="no"?>
<!-- Created with Inkscape (http://www.inkscape.org/) -->

<svg
   width="64"
   height="64"
   id="svg2869"
   version="1.1"
   viewBox="0 0 64 64"
   xmlns="http://www.w3.org/2000/svg"
   xmlns:svg="http://www.w3.org/2000/svg"
   xmlns:rdf="http://www.w3.org/1999/02/22-rdf-syntax-ns#"
   xmlns:cc="http://creativecommons.org/ns#"
   xmlns:dc="http://purl.org/dc/elements/1.1/">
  <defs
     id="defs2871">
    <linearGradient
       id="linearGradient5">
      <stop
         style="stop-color:#ef2929;stop-opacity:1;"
         offset="0"
         id="stop19" />
      <stop
         style="stop-color:#ef2929;stop-opacity:0;"
         offset="1"
         id="stop20" />
    </linearGradient>
    <linearGradient
       id="swatch18">
      <stop
         style="stop-color:#ef2929;stop-opacity:1;"
         offset="0"
         id="stop18" />
    </linearGradient>
    <linearGradient
       id="swatch15">
      <stop
         style="stop-color:#3d0000;stop-opacity:1;"
         offset="0"
         id="stop15" />
    </linearGradient>
    <linearGradient
       id="linearGradient5-1">
      <stop
         style="stop-color:#ef2929;stop-opacity:1;"
         offset="0"
         id="stop5" />
      <stop
         style="stop-color:#ef2929;stop-opacity:0;"
         offset="1"
         id="stop6" />
    </linearGradient>
    <linearGradient
       id="linearGradient3836-9">
      <stop
         style="stop-color:#a40000;stop-opacity:1"
         offset="0"
         id="stop3838-8" />
      <stop
         style="stop-color:#ef2929;stop-opacity:1"
         offset="1"
         id="stop3840-1" />
    </linearGradient>
  </defs>
  <metadata
     id="metadata2874">
    <rdf:RDF>
      <cc:Work
         rdf:about="">
        <dc:format>image/svg+xml</dc:format>
        <dc:type
           rdf:resource="http://purl.org/dc/dcmitype/StillImage" />
        <dc:creator>
          <cc:Agent>
            <dc:title>[maxwxyz]</dc:title>
          </cc:Agent>
        </dc:creator>
        <dc:relation>https://www.freecad.org/wiki/index.php?title=Artwork</dc:relation>
        <dc:publisher>
          <cc:Agent>
            <dc:title>FreeCAD</dc:title>
          </cc:Agent>
        </dc:publisher>
        <dc:identifier>FreeCAD/src/</dc:identifier>
        <dc:rights>
          <cc:Agent>
            <dc:title>FreeCAD LGPL2+</dc:title>
          </cc:Agent>
        </dc:rights>
        <dc:date>2024</dc:date>
      </cc:Work>
    </rdf:RDF>
  </metadata>
  <g
     id="layer3"
     style="display:inline">
    <path
       style="fill:none;fill-rule:evenodd;stroke:#0c1522;stroke-width:6;stroke-linecap:round;stroke-linejoin:miter;stroke-miterlimit:4;stroke-dasharray:none;stroke-opacity:1"
       d="M 7.7283821,29 H 57.728385"
       id="path215" />
    <path
       style="fill:none;fill-rule:evenodd;stroke:#0c1522;stroke-width:6;stroke-linecap:round;stroke-linejoin:miter;stroke-miterlimit:4;stroke-dasharray:none;stroke-opacity:1"
       d="M 7.7283821,39 H 57.728385"
       id="path216" />
    <path
       style="fill:none;fill-rule:evenodd;stroke:#0c1522;stroke-width:6;stroke-linecap:round;stroke-linejoin:miter;stroke-miterlimit:4;stroke-dasharray:none;stroke-opacity:1"
       d="M 7.7283821,49 H 57.728385"
       id="path217" />
    <path
       style="fill:none;fill-rule:evenodd;stroke:#0c1522;stroke-width:6;stroke-linecap:round;stroke-linejoin:miter;stroke-miterlimit:4;stroke-dasharray:none;stroke-opacity:1"
       d="M 7.7283821,59 H 57.728385"
       id="path218" />
    <path
       style="fill:none;fill-rule:evenodd;stroke:#230b0b;stroke-width:6;stroke-linecap:round;stroke-linejoin:miter;stroke-miterlimit:4;stroke-dasharray:none;stroke-opacity:1"
       d="M 7.7283821,29 V 59"
       id="path219" />
    <path
       style="fill:none;fill-rule:evenodd;stroke:#230b0b;stroke-width:6;stroke-linecap:round;stroke-linejoin:miter;stroke-miterlimit:4;stroke-dasharray:none;stroke-opacity:1"
       d="M 17.728385,29 V 59"
       id="path220" />
    <path
       style="fill:none;fill-rule:evenodd;stroke:#230b0b;stroke-width:6;stroke-linecap:round;stroke-linejoin:miter;stroke-miterlimit:4;stroke-dasharray:none;stroke-opacity:1"
       d="M 27.728385,29 V 59"
       id="path221" />
    <path
       style="fill:none;fill-rule:evenodd;stroke:#230b0b;stroke-width:6;stroke-linecap:round;stroke-linejoin:miter;stroke-miterlimit:4;stroke-dasharray:none;stroke-opacity:1"
       d="M 37.728385,29 V 59"
       id="path222" />
    <path
       style="fill:none;fill-rule:evenodd;stroke:#230b0b;stroke-width:6;stroke-linecap:round;stroke-linejoin:miter;stroke-miterlimit:4;stroke-dasharray:none;stroke-opacity:1"
       d="M 47.728385,29 V 59"
       id="path223" />
    <path
       style="fill:none;fill-rule:evenodd;stroke:#230b0b;stroke-width:6;stroke-linecap:round;stroke-linejoin:miter;stroke-miterlimit:4;stroke-dasharray:none;stroke-opacity:1"
       d="M 57.728385,29 V 59"
       id="path224" />
    <path
       style="fill:none;fill-rule:evenodd;stroke:#729fcf;stroke-width:2;stroke-linecap:round;stroke-linejoin:miter;stroke-miterlimit:4;stroke-dasharray:none;stroke-opacity:1"
       d="M 7.7283821,29 H 57.728385"
       id="path3349" />
    <path
       style="fill:none;fill-rule:evenodd;stroke:#729fcf;stroke-width:2;stroke-linecap:round;stroke-linejoin:miter;stroke-miterlimit:4;stroke-dasharray:none;stroke-opacity:1"
       d="M 7.7283821,39 H 57.728385"
       id="path3351" />
    <path
       style="fill:none;fill-rule:evenodd;stroke:#729fcf;stroke-width:2;stroke-linecap:round;stroke-linejoin:miter;stroke-miterlimit:4;stroke-dasharray:none;stroke-opacity:1"
       d="M 7.7283821,49 H 57.728385"
       id="path3353" />
    <path
       style="fill:none;fill-rule:evenodd;stroke:#729fcf;stroke-width:2;stroke-linecap:round;stroke-linejoin:miter;stroke-miterlimit:4;stroke-dasharray:none;stroke-opacity:1"
       d="M 7.7283821,59 H 57.728385"
       id="path3355" />
    <path
       style="fill:none;fill-rule:evenodd;stroke:#ef2929;stroke-width:2;stroke-linecap:round;stroke-linejoin:miter;stroke-miterlimit:4;stroke-dasharray:none;stroke-opacity:1"
       d="M 7.7283821,29 V 59"
       id="path3357" />
    <path
       style="fill:none;fill-rule:evenodd;stroke:#ef2929;stroke-width:2;stroke-linecap:round;stroke-linejoin:miter;stroke-miterlimit:4;stroke-dasharray:none;stroke-opacity:1"
       d="M 17.728385,29 V 59"
       id="path3359" />
    <path
       style="fill:none;fill-rule:evenodd;stroke:#ef2929;stroke-width:2;stroke-linecap:round;stroke-linejoin:miter;stroke-miterlimit:4;stroke-dasharray:none;stroke-opacity:1"
       d="M 27.728385,29 V 59"
       id="path3361" />
    <path
       style="fill:none;fill-rule:evenodd;stroke:#ef2929;stroke-width:2;stroke-linecap:round;stroke-linejoin:miter;stroke-miterlimit:4;stroke-dasharray:none;stroke-opacity:1"
       d="M 37.728385,29 V 59"
       id="path3363" />
    <path
       style="fill:none;fill-rule:evenodd;stroke:#ef2929;stroke-width:2;stroke-linecap:round;stroke-linejoin:miter;stroke-miterlimit:4;stroke-dasharray:none;stroke-opacity:1"
       d="M 47.728385,29 V 59"
       id="path3365" />
    <path
       style="fill:none;fill-rule:evenodd;stroke:#ef2929;stroke-width:2;stroke-linecap:round;stroke-linejoin:miter;stroke-miterlimit:4;stroke-dasharray:none;stroke-opacity:1"
       d="M 57.728385,29 V 59"
       id="path3367" />
    <path
       style="font-size:24px;line-height:1.25;font-family:Evolventa;-inkscape-font-specification:'Evolventa, Normal';letter-spacing:0px;word-spacing:0px;display:inline;fill:#0b1e23;fill-opacity:1;stroke:#0b1e23;stroke-width:2;stroke-linecap:round;stroke-linejoin:round;stroke-dasharray:none;stroke-opacity:1"
       d="M 9.9394531,2.5 4.9492188,9.9140625 C 3.1591693,12.586531 2.5,14.146158 2.5,16.380859 c 0,4.639874 3.4850225,8.167969 8.119141,8.167969 1.163455,0 2.246928,-0.232408 3.21875,-0.652344 l -0.230469,0.339844 h 6.859375 l 2.482422,-3.675781 2.46875,3.675781 h 6.898437 l -2.21875,-3.240234 h 5.882813 v 3.240234 h 5.751953 v -3.240234 h 1.630859 V 15.388672 H 41.732422 V 2.5 H 36.578125 L 27.107422,16.626953 26.378906,15.5625 32.404297,7.1074219 H 25.439453 L 22.949219,10.681641 20.445312,7.1074219 H 13.693359 L 16.814453,2.5 Z m 3.6699219,4.7324219 1.623047,2.2910156 C 14.51132,9.0130707 13.694553,8.6374381 12.8125,8.4101562 Z m 22.371094,6.3417971 v 1.814453 h -1.205078 z m -17.75586,0.169922 1.28711,1.816406 -0.947266,1.392578 c 0.01666,-0.228882 0.03125,-0.458743 0.03125,-0.693359 0,-0.877371 -0.13153,-1.722166 -0.371094,-2.515625 z m -7.701171,0.02734 c 1.378908,0 2.296874,0.895364 2.296875,2.583985 0,1.677163 -0.917655,2.583984 -2.22461,2.583984 -1.2781694,0 -2.3203124,-1.017606 -2.3203124,-2.607422 0,-1.522522 1.0783951,-2.560547 2.2480474,-2.560547 z"
       id="text3025"
       aria-label="6x4" />
    <path
       style="font-size:24px;line-height:1.25;font-family:Evolventa;-inkscape-font-specification:'Evolventa, Normal';letter-spacing:0px;word-spacing:0px;display:inline;fill:#ffffff;stroke:#ffffff;stroke-linecap:round;stroke-linejoin:miter"
       d="M 11.004,4.5000001 6.612,11.028 C 4.908,13.572 4.5,14.604 4.5,16.38 c 0,3.528 2.616,6.168 6.12,6.168 3.456,0 5.976,-2.64 5.976,-6.288 0,-3.408 -2.496,-6.096 -5.664,-6.096 -0.744,0 -1.272,0.12 -2.064,0.504 L 13.044,4.5000001 Z M 10.524,11.772 c 2.544,0 4.296,1.872 4.296,4.584 0,2.664 -1.752,4.584 -4.224,4.584 -2.472,0 -4.32,-1.968 -4.32,-4.608 0,-2.592 1.848,-4.56 4.248,-4.56 z m 6.86402,10.464 h 2.016 l 3.552,-5.256 3.528,5.256 h 2.04 l -4.584,-6.696 4.584,-6.4319999 h -2.04 l -3.528,5.0639999 -3.552,-5.0639999 h -2.016 l 4.56,6.4319999 z m 20.591989,0 h 1.752 v -3.24 h 1.632 v -1.608 h -1.632 V 4.5000001 h -2.088 l -8.64,12.8879999 v 1.608 h 8.976 z m 0,-4.848 h -6.936 l 6.936,-10.4399999 z"
       id="text1"
       aria-label="6x4" />
  </g>
</svg>
