<?xml version="1.0" encoding="UTF-8" standalone="no"?>
<!-- Created with Inkscape (http://www.inkscape.org/) -->

<svg
   width="64"
   height="64"
   id="svg2869"
   version="1.1"
   viewBox="0 0 64 64"
   xmlns="http://www.w3.org/2000/svg"
   xmlns:svg="http://www.w3.org/2000/svg"
   xmlns:rdf="http://www.w3.org/1999/02/22-rdf-syntax-ns#"
   xmlns:cc="http://creativecommons.org/ns#"
   xmlns:dc="http://purl.org/dc/elements/1.1/">
  <defs
     id="defs2871">
    <linearGradient
       id="linearGradient5">
      <stop
         style="stop-color:#ef2929;stop-opacity:1;"
         offset="0"
         id="stop19" />
      <stop
         style="stop-color:#ef2929;stop-opacity:0;"
         offset="1"
         id="stop20" />
    </linearGradient>
    <linearGradient
       id="swatch18">
      <stop
         style="stop-color:#ef2929;stop-opacity:1;"
         offset="0"
         id="stop18" />
    </linearGradient>
    <linearGradient
       id="swatch15">
      <stop
         style="stop-color:#3d0000;stop-opacity:1;"
         offset="0"
         id="stop15" />
    </linearGradient>
    <linearGradient
       id="linearGradient5-1">
      <stop
         style="stop-color:#ef2929;stop-opacity:1;"
         offset="0"
         id="stop5" />
      <stop
         style="stop-color:#ef2929;stop-opacity:0;"
         offset="1"
         id="stop6" />
    </linearGradient>
    <linearGradient
       id="linearGradient3836-9">
      <stop
         style="stop-color:#a40000;stop-opacity:1"
         offset="0"
         id="stop3838-8" />
      <stop
         style="stop-color:#ef2929;stop-opacity:1"
         offset="1"
         id="stop3840-1" />
    </linearGradient>
  </defs>
  <metadata
     id="metadata2874">
    <rdf:RDF>
      <cc:Work
         rdf:about="">
        <dc:format>image/svg+xml</dc:format>
        <dc:type
           rdf:resource="http://purl.org/dc/dcmitype/StillImage" />
        <dc:creator>
          <cc:Agent>
            <dc:title>[maxwxyz]</dc:title>
          </cc:Agent>
        </dc:creator>
        <dc:relation>https://www.freecad.org/wiki/index.php?title=Artwork</dc:relation>
        <dc:publisher>
          <cc:Agent>
            <dc:title>FreeCAD</dc:title>
          </cc:Agent>
        </dc:publisher>
        <dc:identifier>FreeCAD/src/</dc:identifier>
        <dc:rights>
          <cc:Agent>
            <dc:title>FreeCAD LGPL2+</dc:title>
          </cc:Agent>
        </dc:rights>
        <dc:date>2024</dc:date>
      </cc:Work>
    </rdf:RDF>
  </metadata>
  <g
     id="layer3"
     style="display:inline">
    <g
       id="g13030"
       style="fill:none;stroke:#ffab00;stroke-width:2;stroke-miterlimit:4;stroke-dasharray:none;stroke-opacity:1"
       transform="translate(-1,-1.9997401)">
      <path
         style="fill:none;stroke:#22160c;stroke-width:6;stroke-linecap:round;stroke-linejoin:round;stroke-miterlimit:4;stroke-dasharray:none;stroke-opacity:1"
         d="M 27,41 H 39"
         id="path203" />
      <path
         style="fill:none;stroke:#22160c;stroke-width:6;stroke-linecap:round;stroke-linejoin:round;stroke-miterlimit:4;stroke-dasharray:none;stroke-opacity:1"
         d="M 39,41 33,51"
         id="path204" />
      <path
         style="fill:none;stroke:#22160c;stroke-width:6;stroke-linecap:round;stroke-linejoin:round;stroke-miterlimit:4;stroke-dasharray:none;stroke-opacity:1"
         d="M 33,51 27,41"
         id="path205" />
      <g
         id="g208"
         transform="translate(1)"
         style="stroke:#22160c;stroke-width:6;stroke-linecap:round;stroke-linejoin:round;stroke-dasharray:none;stroke-opacity:1">
        <path
           style="fill:none;stroke:#22160c;stroke-width:6;stroke-linecap:round;stroke-linejoin:round;stroke-miterlimit:4;stroke-dasharray:none;stroke-opacity:1"
           d="M 32,45 V 25"
           id="path206" />
        <path
           style="fill:none;stroke:#22160c;stroke-width:6;stroke-linecap:round;stroke-linejoin:round;stroke-miterlimit:4;stroke-dasharray:none;stroke-opacity:1"
           d="M 26,41 V 25"
           id="path207" />
        <path
           style="fill:none;stroke:#22160c;stroke-width:6;stroke-linecap:round;stroke-linejoin:round;stroke-miterlimit:4;stroke-dasharray:none;stroke-opacity:1"
           d="M 38,41 V 25"
           id="path208" />
      </g>
      <path
         style="fill:none;stroke:#22160c;stroke-width:6;stroke-linecap:round;stroke-linejoin:round;stroke-miterlimit:4;stroke-dasharray:none;stroke-opacity:1"
         d="M 33,61 50,35 H 17 Z"
         id="path209" />
      <g
         id="g212"
         transform="rotate(-120,32.5,44.711325)"
         style="stroke:#22160c;stroke-width:6;stroke-linecap:round;stroke-linejoin:round;stroke-dasharray:none;stroke-opacity:1">
        <path
           style="fill:none;stroke:#22160c;stroke-width:6;stroke-linecap:round;stroke-linejoin:round;stroke-miterlimit:4;stroke-dasharray:none;stroke-opacity:1"
           d="M 32,45 V 25"
           id="path210" />
        <path
           style="fill:none;stroke:#22160c;stroke-width:6;stroke-linecap:round;stroke-linejoin:round;stroke-miterlimit:4;stroke-dasharray:none;stroke-opacity:1"
           d="M 26.803848,42 V 26"
           id="path211" />
        <path
           style="fill:none;stroke:#22160c;stroke-width:6;stroke-linecap:round;stroke-linejoin:round;stroke-miterlimit:4;stroke-dasharray:none;stroke-opacity:1"
           d="M 38.464102,41.803848 38,25"
           id="path212" />
      </g>
      <g
         id="g215"
         transform="rotate(120,32.5,45.288675)"
         style="stroke:#22160c;stroke-width:6;stroke-linecap:round;stroke-linejoin:round;stroke-dasharray:none;stroke-opacity:1">
        <path
           style="fill:none;stroke:#22160c;stroke-width:6;stroke-linecap:round;stroke-linejoin:round;stroke-miterlimit:4;stroke-dasharray:none;stroke-opacity:1"
           d="M 32,45 V 25"
           id="path213" />
        <path
           style="fill:none;stroke:#22160c;stroke-width:6;stroke-linecap:round;stroke-linejoin:round;stroke-miterlimit:4;stroke-dasharray:none;stroke-opacity:1"
           d="M 25.535898,41.803848 26,25"
           id="path214" />
        <path
           style="fill:none;stroke:#22160c;stroke-width:6;stroke-linecap:round;stroke-linejoin:round;stroke-miterlimit:4;stroke-dasharray:none;stroke-opacity:1"
           d="M 37.196152,42 38,25"
           id="path215" />
      </g>
      <path
         style="fill:none;stroke:#fcaf3e;stroke-width:2;stroke-linecap:butt;stroke-linejoin:miter;stroke-miterlimit:4;stroke-dasharray:none;stroke-opacity:1"
         d="M 27,41 H 39"
         id="path11808" />
      <path
         style="fill:none;stroke:#fcaf3e;stroke-width:2;stroke-linecap:butt;stroke-linejoin:miter;stroke-miterlimit:4;stroke-dasharray:none;stroke-opacity:1"
         d="M 39,41 33,51"
         id="path11810" />
      <path
         style="fill:none;stroke:#fcaf3e;stroke-width:2;stroke-linecap:butt;stroke-linejoin:miter;stroke-miterlimit:4;stroke-dasharray:none;stroke-opacity:1"
         d="M 33,51 27,41"
         id="path11812" />
      <g
         id="g197"
         transform="translate(1)">
        <path
           style="fill:none;stroke:#fcaf3e;stroke-width:2;stroke-linecap:butt;stroke-linejoin:miter;stroke-miterlimit:4;stroke-dasharray:none;stroke-opacity:1"
           d="M 32,45 V 25"
           id="path9177" />
        <path
           style="fill:none;stroke:#fcaf3e;stroke-width:2;stroke-linecap:butt;stroke-linejoin:miter;stroke-miterlimit:4;stroke-dasharray:none;stroke-opacity:1"
           d="M 26,41 V 25"
           id="path12035" />
        <path
           style="fill:none;stroke:#fcaf3e;stroke-width:2;stroke-linecap:butt;stroke-linejoin:miter;stroke-miterlimit:4;stroke-dasharray:none;stroke-opacity:1"
           d="M 38,41 V 25"
           id="path12037" />
      </g>
      <path
         style="fill:none;stroke:#fcb040;stroke-width:2;stroke-linecap:butt;stroke-linejoin:round;stroke-miterlimit:4;stroke-dasharray:none;stroke-opacity:1"
         d="M 33,61 50,35 H 17 Z"
         id="path12039" />
      <g
         id="g199"
         transform="rotate(-120,32.5,44.711325)">
        <path
           style="fill:none;stroke:#fcaf3e;stroke-width:2;stroke-linecap:butt;stroke-linejoin:miter;stroke-miterlimit:4;stroke-dasharray:none;stroke-opacity:1"
           d="M 32,45 V 25"
           id="path197" />
        <path
           style="fill:none;stroke:#fcaf3e;stroke-width:2;stroke-linecap:butt;stroke-linejoin:miter;stroke-miterlimit:4;stroke-dasharray:none;stroke-opacity:1"
           d="M 26.803848,42 V 26"
           id="path198" />
        <path
           style="fill:none;stroke:#fcaf3e;stroke-width:2;stroke-linecap:butt;stroke-linejoin:miter;stroke-miterlimit:4;stroke-dasharray:none;stroke-opacity:1"
           d="M 38.464102,41.803848 38,25"
           id="path199" />
      </g>
      <g
         id="g202"
         transform="rotate(120,32.5,45.288675)">
        <path
           style="fill:none;stroke:#fcaf3e;stroke-width:2;stroke-linecap:butt;stroke-linejoin:miter;stroke-miterlimit:4;stroke-dasharray:none;stroke-opacity:1"
           d="M 32,45 V 25"
           id="path200" />
        <path
           style="fill:none;stroke:#fcaf3e;stroke-width:2;stroke-linecap:butt;stroke-linejoin:miter;stroke-miterlimit:4;stroke-dasharray:none;stroke-opacity:1"
           d="M 25.535898,41.803848 26,25"
           id="path201" />
        <path
           style="fill:none;stroke:#fcaf3e;stroke-width:2;stroke-linecap:butt;stroke-linejoin:miter;stroke-miterlimit:4;stroke-dasharray:none;stroke-opacity:1"
           d="M 37.196152,42 38,25"
           id="path202" />
      </g>
    </g>
    <path
       style="font-size:24px;line-height:1.25;font-family:Evolventa;-inkscape-font-specification:'Evolventa, Normal';letter-spacing:0px;word-spacing:0px;display:inline;fill:#0b1e23;fill-opacity:1;stroke:#0b1d23;stroke-width:2;stroke-linejoin:round;stroke-dasharray:none;stroke-opacity:1"
       d="M 2.3378906,2.5527344 V 24.287109 H 8.1152344 V 13.210938 l 7.4980466,11.076171 h 4.837891 v -9.824218 l 4.380859,2.558593 0.552735,-0.947265 0.544921,0.933594 3.236329,-1.853516 c -0.05726,0.409433 -0.0918,0.827704 -0.0918,1.277344 0,4.639874 3.485022,8.167968 8.11914,8.167968 2.817709,0 5.171553,-1.353573 6.576172,-3.476562 1.434678,2.12544 3.856168,3.476562 6.720703,3.476562 4.601442,0 7.976563,-3.602699 7.976563,-8.287109 0,-3.77943 -2.384548,-6.9760667 -5.783203,-7.8515625 l 4,-5.9082031 H 49.810547 L 44.820312,9.9667969 C 44.414461,10.572716 44.074434,11.116673 43.779297,11.628906 42.752325,10.078404 41.218512,8.9348956 39.386719,8.4628906 l 4.001953,-5.9101562 h -6.875 L 31.523437,9.9667969 C 31.303357,10.295368 31.10085,10.606085 30.914062,10.904297 V 8.21875 l -0.8125,0.023437 0.482422,-0.7773438 -4.621093,-2.7480468 -0.544922,0.9433594 -0.533203,-0.90625 -4.433594,2.5332031 V 2.5527344 H 14.673828 V 12.728516 L 7.8007812,2.5527344 Z m 18.1132814,5.2714843 0.255859,0.4199219 -0.255859,-0.00781 z m 0.177734,5.7226563 -0.177734,0.279297 v -0.275391 z m 16.46875,0.277344 c 1.378909,0 2.296875,0.895363 2.296875,2.583984 0,1.677164 -0.917655,2.583984 -2.224609,2.583984 -1.27817,0 -2.320313,-1.017606 -2.320313,-2.607421 0,-1.522522 1.078395,-2.560547 2.248047,-2.560547 z m 13.296875,0 c 1.317589,0 2.294922,0.948025 2.294922,2.583984 0,1.678264 -0.915702,2.583984 -2.222656,2.583984 -1.27817,0 -2.320313,-1.017606 -2.320313,-2.607421 0,-1.522522 1.078395,-2.560547 2.248047,-2.560547 z"
       id="text3025"
       aria-label="N*66" />
    <path
       style="font-size:24px;line-height:1.25;font-family:Evolventa;-inkscape-font-specification:'Evolventa, Normal';letter-spacing:0px;word-spacing:0px;display:inline;fill:#ffffff;stroke:#ffffff"
       d="m 4.3382594,22.287945 h 1.776 V 6.6879448 L 16.674259,22.287945 h 1.776 V 4.5519448 h -1.776 V 19.263945 L 6.7382594,4.5519448 h -2.4 z M 26.682254,7.4699448 l -1.248,2.16 -1.272,-2.16 -1.176,0.672 1.344,2.2080002 -2.52,-0.072 v 1.248 l 2.52,-0.048 -1.368,2.136 1.152,0.672 1.272,-2.184 1.272,2.184 1.128,-0.648 -1.32,-2.16 2.448,0.048 v -1.248 l -2.472,0.072 1.368,-2.2080002 z m 10.895982,-2.918 -4.392,6.5280002 c -1.704,2.544 -2.112,3.576 -2.112,5.352 0,3.528 2.616,6.168 6.12,6.168 3.456,0 5.976,-2.64 5.976,-6.288 0,-3.408 -2.496,-6.096 -5.664,-6.096 -0.744,0 -1.272,0.12 -2.064,0.504 l 4.176,-6.1680002 z m -0.48,7.2720002 c 2.544,0 4.296,1.872 4.296,4.584 0,2.664 -1.752,4.584 -4.224,4.584 -2.472,0 -4.32,-1.968 -4.32,-4.608 0,-2.592 1.848,-4.56 4.248,-4.56 z m 13.77602,-7.2720002 -4.392,6.5280002 c -1.704,2.544 -2.112,3.576 -2.112,5.352 0,3.528 2.616,6.168 6.12,6.168 3.456,0 5.976,-2.64 5.976,-6.288 0,-3.408 -2.496,-6.096 -5.664,-6.096 -0.744,0 -1.272,0.12 -2.064,0.504 l 4.176,-6.1680002 z m -0.48,7.2720002 c 2.544,0 4.296,1.872 4.296,4.584 0,2.664 -1.752,4.584 -4.224,4.584 -2.472,0 -4.32,-1.968 -4.32,-4.608 0,-2.592 1.848,-4.56 4.248,-4.56 z"
       id="path8"
       aria-label="N*66" />
  </g>
</svg>
