<?xml version="1.0" encoding="UTF-8" standalone="no"?>
<!-- Created with Inkscape (http://www.inkscape.org/) -->

<svg
   width="64"
   height="64"
   id="svg2869"
   version="1.1"
   viewBox="0 0 64 64"
   xmlns="http://www.w3.org/2000/svg"
   xmlns:svg="http://www.w3.org/2000/svg"
   xmlns:rdf="http://www.w3.org/1999/02/22-rdf-syntax-ns#"
   xmlns:cc="http://creativecommons.org/ns#"
   xmlns:dc="http://purl.org/dc/elements/1.1/">
  <defs
     id="defs2871">
    <linearGradient
       id="linearGradient5">
      <stop
         style="stop-color:#ef2929;stop-opacity:1;"
         offset="0"
         id="stop19" />
      <stop
         style="stop-color:#ef2929;stop-opacity:0;"
         offset="1"
         id="stop20" />
    </linearGradient>
    <linearGradient
       id="swatch18">
      <stop
         style="stop-color:#ef2929;stop-opacity:1;"
         offset="0"
         id="stop18" />
    </linearGradient>
    <linearGradient
       id="swatch15">
      <stop
         style="stop-color:#3d0000;stop-opacity:1;"
         offset="0"
         id="stop15" />
    </linearGradient>
    <linearGradient
       id="linearGradient5-1">
      <stop
         style="stop-color:#ef2929;stop-opacity:1;"
         offset="0"
         id="stop5" />
      <stop
         style="stop-color:#ef2929;stop-opacity:0;"
         offset="1"
         id="stop6" />
    </linearGradient>
    <linearGradient
       id="linearGradient3836-9">
      <stop
         style="stop-color:#a40000;stop-opacity:1"
         offset="0"
         id="stop3838-8" />
      <stop
         style="stop-color:#ef2929;stop-opacity:1"
         offset="1"
         id="stop3840-1" />
    </linearGradient>
  </defs>
  <metadata
     id="metadata2874">
    <rdf:RDF>
      <cc:Work
         rdf:about="">
        <dc:format>image/svg+xml</dc:format>
        <dc:type
           rdf:resource="http://purl.org/dc/dcmitype/StillImage" />
        <dc:creator>
          <cc:Agent>
            <dc:title>[maxwxyz]</dc:title>
          </cc:Agent>
        </dc:creator>
        <dc:relation>https://www.freecad.org/wiki/index.php?title=Artwork</dc:relation>
        <dc:publisher>
          <cc:Agent>
            <dc:title>FreeCAD</dc:title>
          </cc:Agent>
        </dc:publisher>
        <dc:identifier>FreeCAD/src/</dc:identifier>
        <dc:rights>
          <cc:Agent>
            <dc:title>FreeCAD LGPL2+</dc:title>
          </cc:Agent>
        </dc:rights>
        <dc:date>2024</dc:date>
      </cc:Work>
    </rdf:RDF>
  </metadata>
  <g
     id="layer3"
     style="display:inline">
    <path
       style="font-size:24px;line-height:1.25;font-family:Evolventa;-inkscape-font-specification:'Evolventa, Normal';letter-spacing:0px;word-spacing:0px;fill:#0b1d23;fill-opacity:1;stroke:#0b1d23;stroke-linejoin:round;stroke-opacity:1;stroke-width:2;stroke-dasharray:none"
       d="M 6.5546875,0.55273437 1.5644531,7.9667969 c -1.7896542,2.6718781 -2.44921873,4.2301421 -2.44921873,6.4648441 0,4.639874 3.48502253,8.167968 8.11914063,8.167968 1.1622782,0 2.2456315,-0.231302 3.216797,-0.65039 l -0.230469,0.33789 h 6.859375 l 2.484375,-3.675781 2.466797,3.675781 h 6.900391 l -0.263672,-0.384765 c 1.020037,0.446803 2.16006,0.697265 3.382812,0.697265 4.601442,0 7.97461,-3.603502 7.97461,-8.287109 0,-3.779249 -2.384809,-6.9739322 -5.783204,-7.8496094 l 4.001954,-5.91015623 h -6.875 L 28.269531,5.1601562 H 22.052734 L 19.564453,8.734375 17.056641,5.1601562 h -6.748047 l 3.11914,-4.60742183 z M 10.222656,5.2871094 11.845703,7.5742187 C 11.125014,7.0645348 10.309076,6.6879718 9.4277344,6.4609375 Z m 14.158203,6.3808596 c -0.308527,0.891672 -0.451171,1.760227 -0.451172,2.763672 0,0.200174 0.01456,0.395959 0.02734,0.591797 l -0.96289,-1.408204 z m -9.541015,0.130859 1.289062,1.816406 -0.949218,1.392579 c 0.01675,-0.229499 0.03125,-0.460037 0.03125,-0.695313 0,-0.876714 -0.131876,-1.720727 -0.371094,-2.513672 z m -7.7011721,0.02539 c 1.3175883,0 2.2949218,0.948025 2.2949219,2.583984 0,1.678264 -0.9157019,2.583984 -2.2226563,2.583984 -1.2781695,0 -2.3203125,-1.017606 -2.3203125,-2.607421 0,-1.522522 1.0783951,-2.560547 2.2480469,-2.560547 z m 24.8164061,0 c 1.317588,0 2.294922,0.948025 2.294922,2.583984 0,1.677164 -0.917655,2.583985 -2.224609,2.583984 -1.27817,0 -2.31836,-1.016496 -2.31836,-2.607421 0,-1.522522 1.078395,-2.560547 2.248047,-2.560547 z"
       id="path144"
       aria-label="6x6 "
       transform="translate(3.3847656,1.9472656)" />
    <path
       style="font-size:24px;line-height:1.25;font-family:Evolventa;-inkscape-font-specification:'Evolventa, Normal';letter-spacing:0px;word-spacing:0px;fill:#ffffff;stroke:#ffffff"
       d="m 11.003025,4.4992104 -4.392,6.5279996 c -1.704,2.544001 -2.112,3.576001 -2.112,5.352001 0,3.528 2.616,6.168 6.12,6.168 3.456,0 5.976,-2.64 5.976,-6.288 0,-3.408 -2.496,-6.096001 -5.664,-6.096001 -0.744,0 -1.272,0.12 -2.064,0.504 l 4.176,-6.1679996 z m -0.48,7.2719996 c 2.544,0 4.296,1.872001 4.296,4.584001 0,2.664 -1.752,4.584 -4.224,4.584 -2.472,0 -4.32,-1.968 -4.32,-4.608 0,-2.592 1.848,-4.560001 4.248,-4.560001 z m 6.864021,10.464001 h 2.016 l 3.552,-5.256 3.528,5.256 h 2.04 l -4.584,-6.696 4.584,-6.4320006 h -2.04 l -3.528,5.0640006 -3.552,-5.0640006 h -2.016 l 4.56,6.4320006 z m 18.431989,-17.7360006 -4.392,6.5279996 c -1.704,2.544001 -2.112,3.576001 -2.112,5.352001 0,3.528 2.616,6.168 6.12,6.168 3.456,0 5.976,-2.64 5.976,-6.288 0,-3.408 -2.496,-6.096001 -5.664,-6.096001 -0.744,0 -1.272,0.12 -2.064,0.504 l 4.176,-6.1679996 z m -0.48,7.2719996 c 2.544,0 4.296,1.872001 4.296,4.584001 0,2.664 -1.752,4.584 -4.224,4.584 -2.472,0 -4.32,-1.968 -4.32,-4.608 0,-2.592 1.848,-4.560001 4.248,-4.560001 z"
       id="text3025"
       aria-label="6x6 " />
    <path
       id="path145"
       style="fill:none;fill-rule:evenodd;stroke:#0c1522;stroke-width:6;stroke-linecap:round;stroke-linejoin:round;stroke-miterlimit:4;stroke-dasharray:none;stroke-opacity:1"
       d="M 8,58 H 58 M 8,53 h 50 m 0,-5 H 8 m 0,-5 h 50 m 0,-5 H 8 M 8,33 H 58 M 48,33 V 58 M 58,33 V 58 M 38,33 V 58 M 28,33 V 58 M 18,33 V 57 M 8,33 v 25" />
    <path
       id="path4181"
       style="fill:none;fill-rule:evenodd;stroke:#729fcf;stroke-width:2;stroke-linecap:round;stroke-linejoin:miter;stroke-miterlimit:4;stroke-dasharray:none;stroke-opacity:1"
       d="M 8,58 H 58 M 8,53 h 50 m 0,-5 H 8 m 0,-5 h 50 m 0,-5 H 8 M 8,33 H 58 M 48,33 V 58 M 58,33 V 58 M 38,33 V 58 M 28,33 V 58 M 18,33 V 57 M 8,33 v 25" />
  </g>
</svg>
