<?xml version="1.0" encoding="UTF-8" standalone="no"?>
<!-- Created with Inkscape (http://www.inkscape.org/) -->

<svg
   width="64"
   height="64"
   id="svg2869"
   version="1.1"
   viewBox="0 0 64 64"
   xmlns="http://www.w3.org/2000/svg"
   xmlns:svg="http://www.w3.org/2000/svg"
   xmlns:rdf="http://www.w3.org/1999/02/22-rdf-syntax-ns#"
   xmlns:cc="http://creativecommons.org/ns#"
   xmlns:dc="http://purl.org/dc/elements/1.1/">
  <defs
     id="defs2871">
    <linearGradient
       id="linearGradient5">
      <stop
         style="stop-color:#ef2929;stop-opacity:1;"
         offset="0"
         id="stop19" />
      <stop
         style="stop-color:#ef2929;stop-opacity:0;"
         offset="1"
         id="stop20" />
    </linearGradient>
    <linearGradient
       id="swatch18">
      <stop
         style="stop-color:#ef2929;stop-opacity:1;"
         offset="0"
         id="stop18" />
    </linearGradient>
    <linearGradient
       id="swatch15">
      <stop
         style="stop-color:#3d0000;stop-opacity:1;"
         offset="0"
         id="stop15" />
    </linearGradient>
    <linearGradient
       id="linearGradient5-1">
      <stop
         style="stop-color:#ef2929;stop-opacity:1;"
         offset="0"
         id="stop5" />
      <stop
         style="stop-color:#ef2929;stop-opacity:0;"
         offset="1"
         id="stop6" />
    </linearGradient>
    <linearGradient
       id="linearGradient3836-9">
      <stop
         style="stop-color:#a40000;stop-opacity:1"
         offset="0"
         id="stop3838-8" />
      <stop
         style="stop-color:#ef2929;stop-opacity:1"
         offset="1"
         id="stop3840-1" />
    </linearGradient>
    <linearGradient
       id="linearGradient3836-9-3">
      <stop
         style="stop-color:#a40000;stop-opacity:1"
         offset="0"
         id="stop3838-8-5" />
      <stop
         style="stop-color:#ef2929;stop-opacity:1"
         offset="1"
         id="stop3840-1-6" />
    </linearGradient>
    <linearGradient
       id="linearGradient2">
      <stop
         style="stop-color:#73d216;stop-opacity:1;"
         offset="0"
         id="stop1" />
      <stop
         style="stop-color:#8ae234;stop-opacity:1;"
         offset="1"
         id="stop2" />
    </linearGradient>
    <linearGradient
       id="linearGradient3836">
      <stop
         style="stop-color:#ad7fa8;stop-opacity:1"
         offset="0"
         id="stop3838" />
      <stop
         style="stop-color:#5c3566;stop-opacity:1"
         offset="1"
         id="stop3840" />
    </linearGradient>
    <linearGradient
       id="linearGradient3836-1">
      <stop
         style="stop-color:#729fcf;stop-opacity:1"
         offset="0"
         id="stop3838-9" />
      <stop
         style="stop-color:#204a87;stop-opacity:1"
         offset="1"
         id="stop3840-0" />
    </linearGradient>
    <linearGradient
       id="linearGradient3836-6">
      <stop
         style="stop-color:#ef2929;stop-opacity:1"
         offset="0"
         id="stop3838-91" />
      <stop
         style="stop-color:#a40000;stop-opacity:1"
         offset="1"
         id="stop3840-01" />
    </linearGradient>
    <clipPath
       clipPathUnits="userSpaceOnUse"
       id="clipPath1462">
      <path
         style="display:block;fill:#000000;fill-opacity:1;stroke:#000000;stroke-width:1px;stroke-linecap:butt;stroke-linejoin:miter;stroke-opacity:1"
         d="m 22,36 c 5.407074,-1.905508 10.878082,-3.341719 17,0 -0.421607,6.468534 -2.271311,11.840045 -7,15 C 24.172949,45.351246 23.112121,40.679326 22,36"
         id="path1464" />
    </clipPath>
    <linearGradient
       id="linearGradient3836-16">
      <stop
         style="stop-color:#729fcf;stop-opacity:1"
         offset="0"
         id="stop3838-86" />
      <stop
         style="stop-color:#204a87;stop-opacity:1"
         offset="1"
         id="stop3840-03" />
    </linearGradient>
    <clipPath
       clipPathUnits="userSpaceOnUse"
       id="clipath_lpe_path-effect11">
      <path
         style="display:block;fill:#000000;fill-opacity:1;stroke:#000000;stroke-width:1px;stroke-linecap:butt;stroke-linejoin:miter;stroke-opacity:1"
         d="m 22,36 c 5.407074,-1.905508 10.878082,-3.341719 17,0 -0.421607,6.468534 -2.271311,11.840045 -7,15 C 24.172949,45.351246 23.112121,40.679326 22,36"
         id="path11" />
    </clipPath>
  </defs>
  <metadata
     id="metadata2874">
    <rdf:RDF>
      <cc:Work
         rdf:about="">
        <dc:format>image/svg+xml</dc:format>
        <dc:type
           rdf:resource="http://purl.org/dc/dcmitype/StillImage" />
        <dc:creator>
          <cc:Agent>
            <dc:title>[maxwxyz]</dc:title>
          </cc:Agent>
        </dc:creator>
        <dc:relation>https://www.freecad.org/wiki/index.php?title=Artwork</dc:relation>
        <dc:publisher>
          <cc:Agent>
            <dc:title>FreeCAD</dc:title>
          </cc:Agent>
        </dc:publisher>
        <dc:identifier>FreeCAD/src/</dc:identifier>
        <dc:rights>
          <cc:Agent>
            <dc:title>FreeCAD LGPL2+</dc:title>
          </cc:Agent>
        </dc:rights>
        <dc:date>2024</dc:date>
      </cc:Work>
    </rdf:RDF>
  </metadata>
  <g
     id="layer3"
     style="display:inline">
    <path
       style="font-size:24px;line-height:1.25;font-family:Evolventa;-inkscape-font-specification:'Evolventa, Normal';letter-spacing:0px;word-spacing:0px;fill:#0b1d23;fill-opacity:1;stroke:#0b1d23;stroke-opacity:1;stroke-width:2;stroke-dasharray:none;stroke-linejoin:round;stroke-linecap:round"
       d="M 8.375,0.55273437 -1.1972656,14.832031 v 4.216797 h 8.9746093 v 3.238281 h 2.4433593 3.308594 3.550781 l 2.484375,-3.675781 2.466797,3.675781 h 6.900391 l -2.216797,-3.238281 h 5.878906 v 3.238281 h 5.751953 v -3.238281 h 1.632813 V 13.439453 H 38.345703 V 0.55273437 h -5.154297 l -9.46875,14.12499963 -0.728515,-1.0625 6.02539,-8.4550778 H 22.052734 L 19.564453,8.734375 17.056641,5.1601562 H 13.529297 V 0.55273437 Z m 5.154297,9.39648443 2.599609,3.6660152 -0.966797,1.417969 v -1.59375 H 13.529297 Z M 7.7773437,11.625 v 1.814453 H 6.5722656 Z m 24.8164063,0 v 1.814453 h -1.205078 z"
       id="path141"
       aria-label="4x4"
       transform="translate(3.6972656,1.9472656)" />
    <path
       style="font-size:24px;line-height:1.25;font-family:Evolventa;-inkscape-font-specification:'Evolventa, Normal';letter-spacing:0px;word-spacing:0px;fill:#ffffff;stroke:#ffffff"
       d="m 13.475525,22.235211 h 1.752 v -3.24 h 1.632 v -1.608 h -1.632 V 4.4992104 h -2.088 l -8.64,12.8880006 v 1.608 h 8.976 z m 0,-4.848 h -6.936 l 6.936,-10.4400006 z m 4.224021,4.848 h 2.016 l 3.552,-5.256 3.528,5.256 h 2.04 l -4.584,-6.696 4.584,-6.4320006 h -2.04 l -3.528,5.0640006 -3.552,-5.0640006 h -2.016 l 4.56,6.4320006 z m 20.591989,0 h 1.752 v -3.24 h 1.632 v -1.608 h -1.632 V 4.4992104 h -2.088 l -8.64,12.8880006 v 1.608 h 8.976 z m 0,-4.848 h -6.936 l 6.936,-10.4400006 z"
       id="text3025"
       aria-label="4x4" />
    <path
       id="rect3863"
       style="fill:none;stroke:#230b0b;stroke-width:6;stroke-linecap:round;stroke-linejoin:round;stroke-dasharray:none;stroke-opacity:1"
       d="M 22,49 H 52 V 59 H 22 Z M 22,29 H 52 V 39 H 22 Z m 20,0 H 52 V 59 H 42 Z M 32,29 H 42 V 59 H 32 Z M 22,29 H 32 V 59 H 22 Z" />
    <path
       id="path142"
       style="fill:none;stroke:#ef2929;stroke-width:2;stroke-linecap:round;stroke-linejoin:round"
       d="M 22,49 H 52 V 59 H 22 Z M 22,29 H 52 V 39 H 22 Z m 20,0 H 52 V 59 H 42 Z M 32,29 H 42 V 59 H 32 Z M 22,29 H 32 V 59 H 22 Z" />
  </g>
</svg>
