<?xml version="1.0" encoding="UTF-8" standalone="no"?>
<!-- Created with Inkscape (http://www.inkscape.org/) -->

<svg
   width="64"
   height="64"
   id="svg2869"
   version="1.1"
   viewBox="0 0 64 64"
   xmlns:xlink="http://www.w3.org/1999/xlink"
   xmlns="http://www.w3.org/2000/svg"
   xmlns:svg="http://www.w3.org/2000/svg"
   xmlns:rdf="http://www.w3.org/1999/02/22-rdf-syntax-ns#"
   xmlns:cc="http://creativecommons.org/ns#"
   xmlns:dc="http://purl.org/dc/elements/1.1/">
  <defs
     id="defs2871">
    <linearGradient
       id="linearGradient5">
      <stop
         style="stop-color:#ef2929;stop-opacity:1;"
         offset="0"
         id="stop19" />
      <stop
         style="stop-color:#ef2929;stop-opacity:0;"
         offset="1"
         id="stop20" />
    </linearGradient>
    <linearGradient
       id="swatch18">
      <stop
         style="stop-color:#ef2929;stop-opacity:1;"
         offset="0"
         id="stop18" />
    </linearGradient>
    <linearGradient
       id="swatch15">
      <stop
         style="stop-color:#3d0000;stop-opacity:1;"
         offset="0"
         id="stop15" />
    </linearGradient>
    <linearGradient
       id="linearGradient5-1">
      <stop
         style="stop-color:#ef2929;stop-opacity:1;"
         offset="0"
         id="stop5" />
      <stop
         style="stop-color:#ef2929;stop-opacity:0;"
         offset="1"
         id="stop6" />
    </linearGradient>
    <linearGradient
       id="linearGradient3836-9">
      <stop
         style="stop-color:#a40000;stop-opacity:1"
         offset="0"
         id="stop3838-8" />
      <stop
         style="stop-color:#ef2929;stop-opacity:1"
         offset="1"
         id="stop3840-1" />
    </linearGradient>
    <linearGradient
       id="linearGradient3836-9-3">
      <stop
         style="stop-color:#a40000;stop-opacity:1"
         offset="0"
         id="stop3838-8-5" />
      <stop
         style="stop-color:#ef2929;stop-opacity:1"
         offset="1"
         id="stop3840-1-6" />
    </linearGradient>
    <linearGradient
       id="linearGradient2">
      <stop
         style="stop-color:#73d216;stop-opacity:1;"
         offset="0"
         id="stop1" />
      <stop
         style="stop-color:#8ae234;stop-opacity:1;"
         offset="1"
         id="stop2" />
    </linearGradient>
    <radialGradient
       xlink:href="#linearGradient3836"
       id="radialGradient4154"
       cx="29.499836"
       cy="44.018642"
       fx="29.499836"
       fy="44.018642"
       r="24.359394"
       gradientTransform="matrix(1,0,0,0.77181362,0,10.044454)"
       gradientUnits="userSpaceOnUse" />
    <linearGradient
       id="linearGradient3836">
      <stop
         style="stop-color:#ad7fa8;stop-opacity:1"
         offset="0"
         id="stop3838" />
      <stop
         style="stop-color:#5c3566;stop-opacity:1"
         offset="1"
         id="stop3840" />
    </linearGradient>
  </defs>
  <metadata
     id="metadata2874">
    <rdf:RDF>
      <cc:Work
         rdf:about="">
        <dc:format>image/svg+xml</dc:format>
        <dc:type
           rdf:resource="http://purl.org/dc/dcmitype/StillImage" />
        <dc:creator>
          <cc:Agent>
            <dc:title>[maxwxyz]</dc:title>
          </cc:Agent>
        </dc:creator>
        <dc:relation>https://www.freecad.org/wiki/index.php?title=Artwork</dc:relation>
        <dc:publisher>
          <cc:Agent>
            <dc:title>FreeCAD</dc:title>
          </cc:Agent>
        </dc:publisher>
        <dc:identifier>FreeCAD/src/</dc:identifier>
        <dc:rights>
          <cc:Agent>
            <dc:title>FreeCAD LGPL2+</dc:title>
          </cc:Agent>
        </dc:rights>
        <dc:date>2024</dc:date>
      </cc:Work>
    </rdf:RDF>
  </metadata>
  <g
     id="layer3"
     style="display:inline">
    <path
       style="font-size:24px;line-height:1.25;font-family:Evolventa;-inkscape-font-specification:'Evolventa, Normal';letter-spacing:0px;word-spacing:0px;fill:#0b1e23;stroke:#0b1e23;stroke-linejoin:round;stroke-linecap:round;stroke-opacity:1;fill-opacity:1;stroke-width:2;stroke-dasharray:none"
       d="M 7.4394531,0 2.4492188,7.4140625 C 0.65916933,10.086531 0,11.646158 0,13.880859 c 0,4.639874 3.4850225,8.167969 8.1191406,8.167969 1.1634554,0 2.2469284,-0.232408 3.2187504,-0.652344 l -0.230469,0.339844 h 6.859375 l 2.482422,-3.675781 2.46875,3.675781 h 6.898437 l -2.21875,-3.240234 h 5.882813 v 3.240234 h 5.751953 v -3.240234 h 1.630859 V 12.888672 H 39.232422 V 0 H 34.078125 L 24.607422,14.126953 23.878906,13.0625 29.904297,4.6074219 H 22.939453 L 20.449219,8.1816406 17.945312,4.6074219 H 11.193359 L 14.314453,0 Z m 3.6699219,4.7324219 1.623047,2.2910156 C 12.01132,6.5130707 11.194553,6.1374381 10.3125,5.9101562 Z m 22.371094,6.3417971 v 1.814453 h -1.205078 z m -17.75586,0.169922 1.28711,1.816406 -0.947266,1.392578 c 0.01666,-0.228882 0.03125,-0.458743 0.03125,-0.693359 0,-0.877371 -0.13153,-1.722166 -0.371094,-2.515625 z m -7.7011715,0.02734 c 1.3789086,0 2.2968745,0.895364 2.2968755,2.583985 0,1.677163 -0.9176555,2.583984 -2.2246099,2.583984 -1.2781695,0 -2.3203125,-1.017606 -2.3203125,-2.607422 0,-1.522522 1.0783951,-2.560547 2.2480469,-2.560547 z"
       id="text3025"
       aria-label="6x4"
       transform="translate(2.5,2.5)" />
    <path
       style="fill:#ad7fa8;fill-opacity:1;stroke:#1e0c22;stroke-width:2;stroke-linecap:round;stroke-linejoin:round;stroke-miterlimit:4;stroke-dasharray:none;stroke-opacity:1"
       d="m 20.05612,26.459059 c 15.866953,10.306128 17.184837,1.242793 30.855568,0.128564 -7.437989,9.68415 -7.089811,19.714351 0.899954,30.084179 C 36.534346,56.529663 23.021401,68.268043 6.1711137,56.800367 5.7803485,47.204082 9.0105187,35.709758 20.05612,26.459059 Z"
       id="path3066" />
    <path
       style="font-size:24px;line-height:1.25;font-family:Evolventa;-inkscape-font-specification:'Evolventa, Normal';letter-spacing:0px;word-spacing:0px;fill:#ffffff;stroke:#ffffff;stroke-linejoin:miter;stroke-linecap:round"
       d="M 11.004,4.5000001 6.612,11.028 C 4.908,13.572 4.5,14.604 4.5,16.38 c 0,3.528 2.616,6.168 6.12,6.168 3.456,0 5.976,-2.64 5.976,-6.288 0,-3.408 -2.496,-6.096 -5.664,-6.096 -0.744,0 -1.272,0.12 -2.064,0.504 L 13.044,4.5000001 Z M 10.524,11.772 c 2.544,0 4.296,1.872 4.296,4.584 0,2.664 -1.752,4.584 -4.224,4.584 -2.472,0 -4.32,-1.968 -4.32,-4.608 0,-2.592 1.848,-4.56 4.248,-4.56 z m 6.86402,10.464 h 2.016 l 3.552,-5.256 3.528,5.256 h 2.04 l -4.584,-6.696 4.584,-6.4319999 h -2.04 l -3.528,5.0639999 -3.552,-5.0639999 h -2.016 l 4.56,6.4319999 z m 20.591989,0 h 1.752 v -3.24 h 1.632 v -1.608 h -1.632 V 4.5000001 h -2.088 l -8.64,12.8879999 v 1.608 h 8.976 z m 0,-4.848 h -6.936 l 6.936,-10.4399999 z"
       id="text1"
       aria-label="6x4" />
    <path
       style="fill:url(#radialGradient4154);fill-opacity:1;stroke:#ad7fa8;stroke-width:2;stroke-linecap:round;stroke-linejoin:round;stroke-miterlimit:4;stroke-dasharray:none;stroke-opacity:1"
       d="m 20.25,28.941406 c 13.431413,8.225372 17.682125,2.647848 26.457031,0.384766 -4.622753,8.285112 -4.099212,16.896486 1.378906,25.519531 C 34.022063,56.188205 22.56457,64.867915 8.1542969,55.697266 8.0541114,47.209651 10.996764,37.234456 20.25,28.941406 Z"
       id="path2" />
  </g>
</svg>
