<?xml version="1.0" encoding="UTF-8" standalone="no"?>
<!-- Created with Inkscape (http://www.inkscape.org/) -->

<svg
   width="64"
   height="64"
   id="svg2869"
   version="1.1"
   viewBox="0 0 64 64"
   xmlns:xlink="http://www.w3.org/1999/xlink"
   xmlns="http://www.w3.org/2000/svg"
   xmlns:svg="http://www.w3.org/2000/svg"
   xmlns:rdf="http://www.w3.org/1999/02/22-rdf-syntax-ns#"
   xmlns:cc="http://creativecommons.org/ns#"
   xmlns:dc="http://purl.org/dc/elements/1.1/">
  <defs
     id="defs2871">
    <linearGradient
       id="linearGradient5">
      <stop
         style="stop-color:#ef2929;stop-opacity:1;"
         offset="0"
         id="stop19" />
      <stop
         style="stop-color:#ef2929;stop-opacity:0;"
         offset="1"
         id="stop20" />
    </linearGradient>
    <linearGradient
       id="swatch18">
      <stop
         style="stop-color:#ef2929;stop-opacity:1;"
         offset="0"
         id="stop18" />
    </linearGradient>
    <linearGradient
       id="swatch15">
      <stop
         style="stop-color:#3d0000;stop-opacity:1;"
         offset="0"
         id="stop15" />
    </linearGradient>
    <linearGradient
       id="linearGradient5-1">
      <stop
         style="stop-color:#ef2929;stop-opacity:1;"
         offset="0"
         id="stop5" />
      <stop
         style="stop-color:#ef2929;stop-opacity:0;"
         offset="1"
         id="stop6" />
    </linearGradient>
    <linearGradient
       id="linearGradient3836-9">
      <stop
         style="stop-color:#a40000;stop-opacity:1"
         offset="0"
         id="stop3838-8" />
      <stop
         style="stop-color:#ef2929;stop-opacity:1"
         offset="1"
         id="stop3840-1" />
    </linearGradient>
    <linearGradient
       id="linearGradient3836-9-3">
      <stop
         style="stop-color:#a40000;stop-opacity:1"
         offset="0"
         id="stop3838-8-5" />
      <stop
         style="stop-color:#ef2929;stop-opacity:1"
         offset="1"
         id="stop3840-1-6" />
    </linearGradient>
    <linearGradient
       id="linearGradient2">
      <stop
         style="stop-color:#73d216;stop-opacity:1;"
         offset="0"
         id="stop1" />
      <stop
         style="stop-color:#8ae234;stop-opacity:1;"
         offset="1"
         id="stop2" />
    </linearGradient>
    <linearGradient
       id="linearGradient3836">
      <stop
         style="stop-color:#ad7fa8;stop-opacity:1"
         offset="0"
         id="stop3838" />
      <stop
         style="stop-color:#5c3566;stop-opacity:1"
         offset="1"
         id="stop3840" />
    </linearGradient>
    <linearGradient
       id="linearGradient3836-1">
      <stop
         style="stop-color:#729fcf;stop-opacity:1"
         offset="0"
         id="stop3838-9" />
      <stop
         style="stop-color:#204a87;stop-opacity:1"
         offset="1"
         id="stop3840-0" />
    </linearGradient>
    <linearGradient
       id="linearGradient3836-6">
      <stop
         style="stop-color:#ef2929;stop-opacity:1"
         offset="0"
         id="stop3838-91" />
      <stop
         style="stop-color:#a40000;stop-opacity:1"
         offset="1"
         id="stop3840-01" />
    </linearGradient>
    <clipPath
       clipPathUnits="userSpaceOnUse"
       id="clipPath1462">
      <path
         style="display:none;fill:#000000;fill-opacity:1;stroke:#000000;stroke-width:1px;stroke-linecap:butt;stroke-linejoin:miter;stroke-opacity:1"
         d="m 22,36 c 5.407074,-1.905508 10.878082,-3.341719 17,0 -0.421607,6.468534 -2.271311,11.840045 -7,15 C 24.172949,45.351246 23.112121,40.679326 22,36"
         id="path1464" />
      <path
         id="lpe_path-effect1466"
         style="fill:#000000;fill-opacity:1;stroke:#000000;stroke-width:1px;stroke-linecap:butt;stroke-linejoin:miter;stroke-opacity:1"
         class="powerclip"
         d="M 5.4980308,19.444131 H 56.537602 V 67.500709 H 5.4980308 Z M 22,36 c 1.112121,4.679326 2.172949,9.351246 10,15 4.728689,-3.159955 6.578393,-8.531466 7,-15 -6.121918,-3.341719 -11.592926,-1.905508 -17,0" />
    </clipPath>
    <radialGradient
       xlink:href="#linearGradient3836-16"
       id="radialGradient5167"
       cx="30.935728"
       cy="43.444443"
       fx="30.935728"
       fy="43.444443"
       r="20.064272"
       gradientTransform="matrix(1,0,0,0.92480581,0,3.2667697)"
       gradientUnits="userSpaceOnUse" />
    <linearGradient
       id="linearGradient3836-16">
      <stop
         style="stop-color:#729fcf;stop-opacity:1"
         offset="0"
         id="stop3838-86" />
      <stop
         style="stop-color:#204a87;stop-opacity:1"
         offset="1"
         id="stop3840-03" />
    </linearGradient>
    <clipPath
       clipPathUnits="userSpaceOnUse"
       id="clipath_lpe_path-effect11">
      <path
         style="display:none;fill:#000000;fill-opacity:1;stroke:#000000;stroke-width:1px;stroke-linecap:butt;stroke-linejoin:miter;stroke-opacity:1"
         d="m 31.294922,35.996094 c 1.791921,-0.0045 3.655927,0.331248 5.597656,1.193359 -0.497492,4.896805 -1.959344,8.779879 -4.896484,11.306641 -5.236248,-4.081831 -6.648344,-7.478897 -7.615235,-11.189453 2.356243,-0.761555 4.615449,-1.304757 6.914063,-1.310547 z"
         id="path11" />
      <path
         id="lpe_path-effect11"
         style="fill:#000000;fill-opacity:1;stroke:#000000;stroke-width:1px;stroke-linecap:butt;stroke-linejoin:miter;stroke-opacity:1"
         class="powerclip"
         d="M 6.9980469,20.949219 H 55.076172 V 66 H 6.9980469 Z M 31.283203,31.996094 c -3.521894,0.0089 -6.855992,1.027791 -9.947266,2.117187 l -1.697265,0.597656 0.416015,1.751954 c 1.105941,4.65332 2.238768,9.997353 10.775391,16.158203 l 1.126953,0.814453 1.154297,-0.773438 c 5.482669,-3.663803 7.440638,-9.717194 7.884766,-16.53125 l 0.08203,-1.27539 -1.119141,-0.611328 C 36.960195,32.607217 34.09717,31.989005 31.283203,31.996094 Z" />
    </clipPath>
  </defs>
  <metadata
     id="metadata2874">
    <rdf:RDF>
      <cc:Work
         rdf:about="">
        <dc:format>image/svg+xml</dc:format>
        <dc:type
           rdf:resource="http://purl.org/dc/dcmitype/StillImage" />
        <dc:creator>
          <cc:Agent>
            <dc:title>[maxwxyz]</dc:title>
          </cc:Agent>
        </dc:creator>
        <dc:relation>https://www.freecad.org/wiki/index.php?title=Artwork</dc:relation>
        <dc:publisher>
          <cc:Agent>
            <dc:title>FreeCAD</dc:title>
          </cc:Agent>
        </dc:publisher>
        <dc:identifier>FreeCAD/src/</dc:identifier>
        <dc:rights>
          <cc:Agent>
            <dc:title>FreeCAD LGPL2+</dc:title>
          </cc:Agent>
        </dc:rights>
        <dc:date>2024</dc:date>
      </cc:Work>
    </rdf:RDF>
  </metadata>
  <g
     id="layer3"
     style="display:inline">
    <path
       style="font-size:24px;line-height:1.25;font-family:Evolventa;-inkscape-font-specification:'Evolventa, Normal';letter-spacing:0px;word-spacing:0px;fill:#0b1e23;fill-opacity:1;stroke:#0b1d23;stroke-linejoin:round;stroke-opacity:1;stroke-width:2;stroke-dasharray:none"
       d="M 0.33789063,0.55273437 V 22.287109 H 6.1152344 V 11.210938 l 7.4980466,11.076171 h 4.837891 v -9.824218 l 4.380859,2.558593 0.552735,-0.947265 0.544921,0.933594 3.236329,-1.853516 c -0.05726,0.409433 -0.0918,0.827704 -0.0918,1.277344 0,4.639874 3.485022,8.167968 8.11914,8.167968 2.817709,0 5.171553,-1.353573 6.576172,-3.476562 1.434678,2.12544 3.856168,3.476562 6.720703,3.476562 4.601442,0 7.976563,-3.602699 7.976563,-8.287109 0,-3.77943 -2.384548,-6.9760667 -5.783203,-7.8515625 l 4,-5.90820313 H 47.810547 L 42.820312,7.9667969 C 42.414461,8.5727163 42.074434,9.1166729 41.779297,9.6289063 40.752325,8.0784037 39.218512,6.9348956 37.386719,6.4628906 l 4.001953,-5.91015623 h -6.875 L 29.523437,7.9667969 c -0.22008,0.3285711 -0.422587,0.6392885 -0.609375,0.9375 V 6.21875 l -0.8125,0.023437 0.482422,-0.7773438 -4.621093,-2.7480468 -0.544922,0.9433594 -0.533203,-0.90625 -4.433594,2.5332031 V 0.55273437 H 12.673828 V 10.728516 L 5.8007812,0.55273437 Z M 18.451172,5.8242187 l 0.255859,0.4199219 -0.255859,-0.00781 z m 0.177734,5.7226563 -0.177734,0.279297 v -0.275391 z m 16.46875,0.277344 c 1.378909,0 2.296875,0.895363 2.296875,2.583984 0,1.677164 -0.917655,2.583984 -2.224609,2.583984 -1.27817,0 -2.320313,-1.017606 -2.320313,-2.607421 0,-1.522522 1.078395,-2.560547 2.248047,-2.560547 z m 13.296875,0 c 1.317589,0 2.294922,0.948025 2.294922,2.583984 0,1.678264 -0.915702,2.583984 -2.222656,2.583984 -1.27817,0 -2.320313,-1.017606 -2.320313,-2.607421 0,-1.522522 1.078395,-2.560547 2.248047,-2.560547 z"
       id="text3025"
       aria-label="N*66"
       transform="translate(2,2)" />
    <path
       style="font-size:24px;line-height:1.25;font-family:Evolventa;-inkscape-font-specification:'Evolventa, Normal';letter-spacing:0px;word-spacing:0px;fill:#ffffff;stroke:#ffffff"
       d="m 4.3382594,22.287945 h 1.776 V 6.6879448 L 16.674259,22.287945 h 1.776 V 4.5519448 h -1.776 V 19.263945 L 6.7382594,4.5519448 h -2.4 z M 26.682254,7.4699448 l -1.248,2.16 -1.272,-2.16 -1.176,0.672 1.344,2.2080002 -2.52,-0.072 v 1.248 l 2.52,-0.048 -1.368,2.136 1.152,0.672 1.272,-2.184 1.272,2.184 1.128,-0.648 -1.32,-2.16 2.448,0.048 v -1.248 l -2.472,0.072 1.368,-2.2080002 z m 10.895982,-2.918 -4.392,6.5280002 c -1.704,2.544 -2.112,3.576 -2.112,5.352 0,3.528 2.616,6.168 6.12,6.168 3.456,0 5.976,-2.64 5.976,-6.288 0,-3.408 -2.496,-6.096 -5.664,-6.096 -0.744,0 -1.272,0.12 -2.064,0.504 l 4.176,-6.1680002 z m -0.48,7.2720002 c 2.544,0 4.296,1.872 4.296,4.584 0,2.664 -1.752,4.584 -4.224,4.584 -2.472,0 -4.32,-1.968 -4.32,-4.608 0,-2.592 1.848,-4.56 4.248,-4.56 z m 13.77602,-7.2720002 -4.392,6.5280002 c -1.704,2.544 -2.112,3.576 -2.112,5.352 0,3.528 2.616,6.168 6.12,6.168 3.456,0 5.976,-2.64 5.976,-6.288 0,-3.408 -2.496,-6.096 -5.664,-6.096 -0.744,0 -1.272,0.12 -2.064,0.504 l 4.176,-6.1680002 z m -0.48,7.2720002 c 2.544,0 4.296,1.872 4.296,4.584 0,2.664 -1.752,4.584 -4.224,4.584 -2.472,0 -4.32,-1.968 -4.32,-4.608 0,-2.592 1.848,-4.56 4.248,-4.56 z"
       id="path8"
       aria-label="N*66" />
    <path
       style="fill:url(#radialGradient5167);fill-opacity:1;stroke:none;stroke-width:2;stroke-linecap:butt;stroke-linejoin:miter;stroke-opacity:1;stroke-dasharray:none"
       d="m 11,28 c 0,0 20,-7 40,0 C 48,51 36,58 31,62 25,59 13,47 11,28 l 12,6 c 0,0 0,9 8,16 7,-5 9,-10 9,-16 -9,-3 -17,0 -17,0 z"
       id="path1853" />
    <path
       style="fill:none;fill-opacity:1;stroke:#0c1522;stroke-width:2;stroke-linecap:butt;stroke-linejoin:round;stroke-opacity:1;stroke-dasharray:none"
       d="M 11,28 C 25.066434,24.941052 35.636678,23.009227 51,28 50,38 45,54 31,62 26.56053,62.122902 10.796382,44.061005 11,28 Z"
       id="path1059"
       clip-path="url(#clipPath1462)" />
    <path
       style="fill:none;fill-opacity:1;stroke:#729fcf;stroke-width:2;stroke-linecap:butt;stroke-linejoin:round;stroke-opacity:1;stroke-dasharray:none"
       d="m 32.888672,26.939453 c 4.918459,0.0165 10.063989,0.728737 15.923828,2.484375 -1.292467,9.484224 -6.10032,23.230551 -18.242188,30.501953 -3.355037,-1.099395 -16.767926,-15.787365 -17.535156,-30.316406 7.19165,-1.54293 13.385121,-2.69162 19.853516,-2.669922 z"
       id="path9"
       clip-path="url(#clipath_lpe_path-effect11)" />
  </g>
</svg>
